{
	"asset":{
		"generator":"Khronos glTF Blender I/O v3.6.28",
		"version":"2.0"
	},
	"scene":0,
	"scenes":[
		{
			"name":"Scene",
			"nodes":[
				0
			]
		}
	],
	"nodes":[
		{
			"mesh":0,
			"name":"\u043e\u0441\u043d\u043e\u0432\u0430",
			"scale":[
				16.88806915283203,
				16.88806915283203,
				16.88806915283203
			],
			"translation":[
				-0.05161857604980469,
				-0.12666797637939453,
				0.01317247748374939
			]
		}
	],
	"materials":[
		{
			"doubleSided":true,
			"name":"Material.007",
			"pbrMetallicRoughness":{
				"baseColorFactor":[
					0.0026707961224019527,
					0.034111298620700836,
					0.004055346827954054,
					1
				],
				"metallicFactor":0,
				"roughnessFactor":0.5
			}
		}
	],
	"meshes":[
		{
			"name":"Plane.046",
			"primitives":[
				{
					"attributes":{
						"COLOR_0":0,
						"POSITION":1,
						"NORMAL":2,
						"TEXCOORD_0":3
					},
					"indices":4,
					"material":0
				}
			]
		}
	],
	"accessors":[
		{
			"bufferView":0,
			"componentType":5123,
			"count":4005,
			"normalized":true,
			"type":"VEC4"
		},
		{
			"bufferView":1,
			"componentType":5126,
			"count":4005,
			"max":[
				1,
				0.3302147388458252,
				0.75
			],
			"min":[
				-1,
				0.0063506364822387695,
				-0.75
			],
			"type":"VEC3"
		},
		{
			"bufferView":2,
			"componentType":5126,
			"count":4005,
			"type":"VEC3"
		},
		{
			"bufferView":3,
			"componentType":5126,
			"count":4005,
			"type":"VEC2"
		},
		{
			"bufferView":4,
			"componentType":5123,
			"count":9552,
			"type":"SCALAR"
		}
	],
	"bufferViews":[
		{
			"buffer":0,
			"byteLength":32040,
			"byteOffset":0,
			"target":34962
		},
		{
			"buffer":0,
			"byteLength":48060,
			"byteOffset":32040,
			"target":34962
		},
		{
			"buffer":0,
			"byteLength":48060,
			"byteOffset":80100,
			"target":34962
		},
		{
			"buffer":0,
			"byteLength":32040,
			"byteOffset":128160,
			"target":34962
		},
		{
			"buffer":0,
			"byteLength":19104,
			"byteOffset":160200,
			"target":34963
		}
	],
	"buffers":[
		{
			"byteLength":179304,
			"uri":"data:application/octet-stream;base64,"
		}
	]
}
